<svg width="950" height="320" viewBox="0 0 950 320" fill="none" xmlns="http://www.w3.org/2000/svg">
<path d="M603.679 33.9549L548.258 65.2742C548.065 65.3818 547.824 65.2459 547.824 65.0279V59.6631C547.824 54.6608 543.68 50.604 538.569 50.604H400.302C400.079 50.604 399.94 50.369 400.05 50.1793L426.759 4.88912C423.491 4.88912 420.472 6.59621 418.838 9.36492L328.3 162.858C328.248 162.946 328.152 163 328.048 163H318.29C318.067 163 317.928 162.765 318.038 162.575L411.263 4.52959C412.917 1.7269 415.972 0 419.277 0H594.38C613.4 0 620.144 24.6438 603.673 33.9521L603.679 33.9549Z" fill="#D7263D"/>
<path d="M406.323 113.095L334.576 162.27C334.322 162.442 334.006 162.159 334.16 161.896L363.166 112.722C363.218 112.634 363.313 112.58 363.417 112.58H406.158C406.442 112.58 406.554 112.937 406.323 113.095Z" fill="#FAF9F7"/>
<path d="M488.445 56.8067L455.317 79.5141C429.316 97.3352 398.341 106.895 366.599 106.895L396.365 56.433C396.417 56.3452 396.513 56.2914 396.617 56.2914H488.28C488.563 56.2914 488.676 56.6481 488.445 56.8067Z" fill="#FAF9F7"/>
<path d="M180.604 206.466L171.513 221.722H91.833L77.5819 245.638H142.862L134.344 259.933H69.064L47.933 295.394H26.653L79.6442 206.466H180.604ZM178.349 297.044C168.322 297.044 160.288 295.669 154.246 292.92C148.311 290.171 144.766 286.185 143.612 280.962C142.512 275.648 144.255 269.142 148.842 261.445C153.428 253.748 159.438 247.242 166.872 241.927C174.36 236.521 182.71 232.443 191.921 229.694C201.239 226.945 210.912 225.571 220.938 225.571C230.965 225.571 238.893 226.945 244.721 229.694C250.657 232.443 254.147 236.521 255.192 241.927C256.292 247.242 254.548 253.748 249.962 261.445C245.375 269.142 239.365 275.648 231.932 280.962C224.553 286.185 216.257 290.171 207.046 292.92C197.941 295.669 188.376 297.044 178.349 297.044ZM186.539 283.299C192.086 283.299 197.537 282.474 202.893 280.825C208.411 279.084 213.405 276.61 217.876 273.403C222.402 270.104 226.057 266.118 228.842 261.445C231.626 256.772 232.722 252.786 232.127 249.487C231.588 246.097 229.65 243.531 226.314 241.79C222.978 240.049 218.483 239.178 212.83 239.178C207.283 239.178 201.751 240.049 196.234 241.79C190.716 243.531 185.642 246.051 181.009 249.349C176.484 252.648 172.801 256.68 169.962 261.445C167.177 266.118 166.082 270.104 166.676 273.403C167.325 276.61 169.371 279.084 172.813 280.825C176.311 282.474 180.886 283.299 186.539 283.299ZM300.594 199.593H321.394L264.308 295.394H243.508L300.594 199.593ZM364.546 197.119L355.209 212.788H331.049L340.386 197.119H364.546ZM324.131 227.083H344.931L304.226 295.394H283.426L324.131 227.083ZM367.655 297.044C357.629 297.044 349.594 295.669 343.552 292.92C337.617 290.171 334.072 286.185 332.918 280.962C331.818 275.648 333.561 269.142 338.148 261.445C342.735 253.748 348.745 247.242 356.178 241.927C363.666 236.521 372.016 232.443 381.228 229.694C390.546 226.945 400.218 225.571 410.245 225.571C420.271 225.571 428.199 226.945 434.028 229.694C439.963 232.443 443.453 236.521 444.498 241.927C445.598 247.242 443.855 253.748 439.268 261.445C434.681 269.142 428.671 275.648 421.238 280.962C413.859 286.185 405.564 290.171 396.352 292.92C387.248 295.669 377.682 297.044 367.655 297.044ZM375.845 283.299C381.392 283.299 386.844 282.474 392.2 280.825C397.717 279.084 402.711 276.61 407.182 273.403C411.708 270.104 415.363 266.118 418.148 261.445C420.933 256.772 422.028 252.786 421.434 249.487C420.894 246.097 418.956 243.531 415.62 241.79C412.284 240.049 407.79 239.178 402.136 239.178C396.59 239.178 391.058 240.049 385.54 241.79C380.023 243.531 374.948 246.051 370.315 249.349C365.79 252.648 362.107 256.68 359.268 261.445C356.483 266.118 355.388 270.104 355.982 273.403C356.631 276.61 358.677 279.084 362.12 280.825C365.617 282.474 370.192 283.299 375.845 283.299ZM478.891 283.711H471.371L534.235 227.083H556.955L478.009 295.394H458.329L461.595 227.083H484.475L478.891 283.711ZM607.602 272.716H627.762C624.124 277.389 619.346 281.558 613.429 285.223C607.618 288.889 600.938 291.775 593.389 293.883C585.84 295.99 577.532 297.044 568.465 297.044C558.332 297.044 550.191 295.669 544.042 292.92C537.948 290.08 534.298 286.002 533.092 280.688C531.885 275.373 533.521 268.959 537.998 261.445C542.475 253.931 548.431 247.517 555.864 242.202C563.353 236.796 571.73 232.672 580.996 229.832C590.368 226.991 600.175 225.571 610.415 225.571C620.868 225.571 628.715 226.991 633.956 229.832C639.196 232.672 641.75 236.979 641.617 242.752C641.645 248.433 638.744 255.718 632.914 264.606H557.074C555.533 268.088 555.142 271.249 555.903 274.09C556.77 276.931 558.846 279.176 562.13 280.825C565.52 282.474 570.202 283.299 576.175 283.299C582.789 283.299 588.855 282.337 594.375 280.413C600.057 278.397 604.466 275.831 607.602 272.716ZM601.346 239.178C593.666 239.178 586.553 240.644 580.005 243.577C573.513 246.417 568.317 249.945 564.419 254.16H618.499C620.696 249.579 620.292 245.959 617.289 243.302C614.447 240.553 609.133 239.178 601.346 239.178ZM667.551 227.083H688.351L647.645 295.394H626.845L667.551 227.083ZM710.148 241.79C704.174 241.79 698.4 242.798 692.826 244.814C687.306 246.738 682.366 249.12 678.007 251.961C673.647 254.802 670.143 257.551 667.493 260.208L671.837 252.648C672.599 251.549 673.981 249.945 675.984 247.838C678.041 245.638 680.553 243.302 683.521 240.828C686.543 238.262 689.963 235.834 693.782 233.543C697.655 231.161 701.788 229.236 706.182 227.77C710.575 226.304 715.119 225.571 719.812 225.571L710.148 241.79ZM800.302 240.69L709.418 287.148L710.291 281.925H776.851L768.824 295.394H687.384L695.411 281.925L786.294 235.467L785.422 240.69H719.982L728.09 227.083H808.41L800.302 240.69ZM869.096 272.716H889.256C885.618 277.389 880.84 281.558 874.923 285.223C869.112 288.889 862.432 291.775 854.883 293.883C847.334 295.99 839.026 297.044 829.959 297.044C819.826 297.044 811.685 295.669 805.536 292.92C799.442 290.08 795.792 286.002 794.585 280.688C793.379 275.373 795.014 268.959 799.492 261.445C803.969 253.931 809.925 247.517 817.358 242.202C824.846 236.796 833.223 232.672 842.489 229.832C851.862 226.991 861.668 225.571 871.908 225.571C882.362 225.571 890.209 226.991 895.449 229.832C900.69 232.672 903.244 236.979 903.111 242.752C903.139 248.433 900.238 255.718 894.408 264.606H818.568C817.026 268.088 816.636 271.249 817.397 274.09C818.264 276.931 820.34 279.176 823.623 280.825C827.014 282.474 831.696 283.299 837.669 283.299C844.283 283.299 850.349 282.337 855.869 280.413C861.55 278.397 865.959 275.831 869.096 272.716ZM862.84 239.178C855.16 239.178 848.046 240.644 841.499 243.577C835.007 246.417 829.811 249.945 825.913 254.16H879.993C882.189 249.579 881.786 245.959 878.783 243.302C875.941 240.553 870.627 239.178 862.84 239.178Z" fill="#FAF9F7"/>
</svg>
