<svg width="466" height="80" viewBox="0 0 466 80" fill="none" xmlns="http://www.w3.org/2000/svg">
<path d="M119.114 14.3736L96.006 27.6314C95.9252 27.6769 95.8251 27.6194 95.8251 27.5271V25.2562C95.8251 23.1386 94.0971 21.4213 91.9662 21.4213H34.3156C34.2227 21.4213 34.1648 21.3218 34.2107 21.2416L45.3472 2.06963C43.9845 2.06963 42.7255 2.79226 42.0442 3.96429L4.29457 68.9401C4.27287 68.9772 4.23307 69 4.18966 69H0.120939C0.0280847 69 -0.0298018 68.9005 0.0160226 68.8202L38.8859 1.91743C39.5757 0.731021 40.8492 0 42.2275 0H115.237C123.167 0 125.979 10.432 119.111 14.3724L119.114 14.3736Z" fill="#D7263D"/>
<path d="M36.8263 47.8747L6.91139 68.6908C6.80527 68.7639 6.67382 68.6441 6.73773 68.5326L18.8317 47.7165C18.8535 47.6794 18.8932 47.6566 18.9367 47.6566H36.7575C36.8757 47.6566 36.9227 47.8076 36.8263 47.8747Z" fill="#FAF9F7"/>
<path d="M71.0667 24.047L57.2543 33.6593C46.4132 41.2032 33.498 45.2502 20.2632 45.2502L32.6743 23.8888C32.696 23.8517 32.7358 23.8289 32.7792 23.8289H70.998C71.1161 23.8289 71.1632 23.9799 71.0667 24.047Z" fill="#FAF9F7"/>
<path d="M79.9151 68.5219C74.9017 68.5219 70.8846 67.8347 67.8636 66.4602C64.896 65.0857 63.1236 63.0927 62.5464 60.4812C61.9965 57.8239 62.8682 54.571 65.1615 50.7224C67.4548 46.8739 70.4598 43.621 74.1766 40.9636C77.9207 38.2605 82.0956 36.2217 86.7013 34.8472C91.3603 33.4727 96.1965 32.7855 101.21 32.7855C106.223 32.7855 110.187 33.4727 113.101 34.8472C116.069 36.2217 117.814 38.2605 118.337 40.9636C118.886 43.621 118.015 46.8739 115.721 50.7224C113.428 54.571 110.423 57.8239 106.706 60.4812C103.017 63.0927 98.8693 65.0857 94.2636 66.4602C89.7112 67.8347 84.9284 68.5219 79.9151 68.5219ZM84.0102 61.6495C86.7835 61.6495 89.5093 61.2372 92.1873 60.4125C94.9461 59.542 97.4432 58.305 99.6787 56.7014C101.942 55.052 103.769 53.059 105.161 50.7224C106.554 48.3858 107.101 46.3928 106.804 44.7435C106.534 43.0483 105.565 41.7654 103.898 40.8949C102.23 40.0244 99.9823 39.5892 97.1556 39.5892C94.3823 39.5892 91.6163 40.0244 88.8575 40.8949C86.0988 41.7654 83.5614 43.0254 81.2452 44.6747C78.9824 46.3241 77.1411 48.34 75.7215 50.7224C74.3291 53.059 73.7815 55.052 74.0787 56.7014C74.4032 58.305 75.4261 59.542 77.1473 60.4125C78.8959 61.2372 81.1835 61.6495 84.0102 61.6495ZM141.038 19.7967H151.438L122.895 67.6972H112.495L141.038 19.7967ZM173.014 18.5596L168.345 26.3942H156.265L160.934 18.5596H173.014ZM152.806 33.5415H163.206L142.853 67.6972H132.453L152.806 33.5415ZM174.568 68.5219C169.555 68.5219 165.538 67.8347 162.517 66.4602C159.549 65.0857 157.777 63.0927 157.2 60.4812C156.65 57.8239 157.521 54.571 159.815 50.7224C162.108 46.8739 165.113 43.621 168.83 40.9636C172.574 38.2605 176.749 36.2217 181.354 34.8472C186.013 33.4727 190.85 32.7855 195.863 32.7855C200.876 32.7855 204.84 33.4727 207.754 34.8472C210.722 36.2217 212.467 38.2605 212.99 40.9636C213.54 43.621 212.668 46.8739 210.375 50.7224C208.081 54.571 205.076 57.8239 201.36 60.4812C197.67 63.0927 193.522 65.0857 188.917 66.4602C184.364 67.8347 179.582 68.5219 174.568 68.5219ZM178.663 61.6495C181.437 61.6495 184.162 61.2372 186.84 60.4125C189.599 59.542 192.096 58.305 194.332 56.7014C196.595 55.052 198.422 53.059 199.815 50.7224C201.207 48.3858 201.755 46.3928 201.457 44.7435C201.188 43.0483 200.219 41.7654 198.551 40.8949C196.883 40.0244 194.635 39.5892 191.809 39.5892C189.035 39.5892 186.269 40.0244 183.511 40.8949C180.752 41.7654 178.215 43.0254 175.898 44.6747C173.636 46.3241 171.794 48.34 170.375 50.7224C168.982 53.059 168.435 55.052 168.732 56.7014C169.056 58.305 170.079 59.542 171.8 60.4125C173.549 61.2372 175.837 61.6495 178.663 61.6495ZM230.186 61.8557H226.426L257.858 33.5415H269.218L229.745 67.6972H219.905L221.538 33.5415H232.978L230.186 61.8557ZM294.542 56.3578H304.622C302.803 58.6944 300.414 60.779 297.455 62.6117C294.55 64.4443 291.21 65.8875 287.435 66.9413C283.66 67.9951 279.507 68.5219 274.973 68.5219C269.907 68.5219 265.836 67.8347 262.762 66.4602C259.715 65.0399 257.89 63.0011 257.286 60.3438C256.683 57.6865 257.501 54.4793 259.74 50.7224C261.978 46.9655 264.956 43.7584 268.673 41.1011C272.417 38.3979 276.605 36.3362 281.238 34.9159C285.925 33.4956 290.828 32.7855 295.948 32.7855C301.175 32.7855 305.098 33.4956 307.718 34.9159C310.339 36.3362 311.616 38.4896 311.549 41.376C311.563 44.2166 310.113 47.8589 307.198 52.3031H269.278C268.507 54.0441 268.312 55.6247 268.692 57.045C269.126 58.4653 270.164 59.5878 271.805 60.4125C273.501 61.2372 275.842 61.6495 278.828 61.6495C282.135 61.6495 285.168 61.1685 287.928 60.2063C290.769 59.1984 292.973 57.9155 294.542 56.3578ZM291.414 39.5892C287.574 39.5892 284.017 40.3222 280.743 41.7883C277.497 43.2086 274.899 44.9725 272.95 47.0801H299.99C301.088 44.7893 300.887 42.9795 299.385 41.6509C297.964 40.2764 295.307 39.5892 291.414 39.5892ZM324.516 33.5415H334.916L314.563 67.6972H304.163L324.516 33.5415ZM345.814 40.8949C342.828 40.8949 339.941 41.3989 337.153 42.4068C334.393 43.369 331.924 44.5602 329.744 45.9805C327.564 47.4008 325.812 48.7753 324.487 50.1039L326.659 46.3241C327.04 45.7743 327.731 44.9725 328.733 43.9188C329.761 42.8192 331.017 41.6509 332.501 40.4138C334.012 39.131 335.722 37.9169 337.631 36.7715C339.568 35.5803 341.635 34.6181 343.831 33.8851C346.028 33.152 348.3 32.7855 350.647 32.7855L345.814 40.8949ZM390.891 40.3451L345.45 63.5738L345.886 60.9623H379.166L375.153 67.6972H334.433L338.446 60.9623L383.888 37.7336L383.451 40.3451H350.731L354.786 33.5415H394.946L390.891 40.3451ZM425.288 56.3578H435.368C433.549 58.6944 431.161 60.779 428.202 62.6117C425.297 64.4443 421.957 65.8875 418.182 66.9413C414.407 67.9951 410.253 68.5219 405.72 68.5219C400.653 68.5219 396.583 67.8347 393.509 66.4602C390.462 65.0399 388.637 63.0011 388.033 60.3438C387.43 57.6865 388.248 54.4793 390.486 50.7224C392.725 46.9655 395.703 43.7584 399.42 41.1011C403.164 38.3979 407.352 36.3362 411.985 34.9159C416.672 33.4956 421.575 32.7855 426.695 32.7855C431.921 32.7855 435.845 33.4956 438.465 34.9159C441.086 36.3362 442.363 38.4896 442.296 41.376C442.31 44.2166 440.859 47.8589 437.945 52.3031H400.025C399.254 54.0441 399.059 55.6247 399.439 57.045C399.873 58.4653 400.91 59.5878 402.552 60.4125C404.248 61.2372 406.589 61.6495 409.575 61.6495C412.882 61.6495 415.915 61.1685 418.675 60.2063C421.516 59.1984 423.72 57.9155 425.288 56.3578ZM422.161 39.5892C418.321 39.5892 414.764 40.3222 411.49 41.7883C408.244 43.2086 405.646 44.9725 403.697 47.0801H430.737C431.835 44.7893 431.634 42.9795 430.132 41.6509C428.711 40.2764 426.054 39.5892 422.161 39.5892Z" fill="#FAF9F7"/>
</svg>
