<svg width="163" height="91" viewBox="0 0 163 91" fill="none" xmlns="http://www.w3.org/2000/svg">
<path d="M157.319 18.9564L126.8 36.4414C126.693 36.5015 126.561 36.4256 126.561 36.3039V33.3089C126.561 30.5161 124.278 28.2513 121.464 28.2513H45.3222C45.1995 28.2513 45.1231 28.1201 45.1836 28.0142L59.8921 2.72951C58.0924 2.72951 56.4296 3.68254 55.5298 5.22827L5.67204 90.921C5.64338 90.97 5.59082 91 5.53348 91H0.15973C0.0370928 91 -0.0393606 90.8688 0.0211618 90.7629L51.3585 2.52879C52.2695 0.9641 53.9514 0 55.7718 0H152.198C162.672 0 166.386 13.7582 157.316 18.9548L157.319 18.9564Z" fill="#D7263D"/>
<path d="M48.6382 63.1391L9.12819 90.5922C8.98803 90.6886 8.81443 90.5306 8.89884 90.3836L24.872 62.9305C24.9006 62.8815 24.9532 62.8514 25.0105 62.8514H48.5474C48.7035 62.8514 48.7656 63.0506 48.6382 63.1391Z" fill="#0C0B0F"/>
<path d="M93.8611 31.7142L75.6184 44.3913C61.3001 54.3405 44.2423 59.6778 26.7625 59.6778L43.1545 31.5055C43.1832 31.4565 43.2357 31.4265 43.2931 31.4265H93.7703C93.9264 31.4265 93.9885 31.6257 93.8611 31.7142Z" fill="#0C0B0F"/>
</svg>
